<?xml version="1.0" encoding="UTF-8"?>
<svg width="296px" height="215px" viewBox="0 0 296 215" version="1.1" xmlns="http://www.w3.org/2000/svg" xmlns:xlink="http://www.w3.org/1999/xlink">
    <title>22DD6FD5-0C85-4AB4-8E2F-CD44B6059F28</title>
    <defs>
        <rect id="path-1" x="0" y="0" width="296" height="215"></rect>
    </defs>
    <g id="Desktop" stroke="none" stroke-width="1" fill="none" fill-rule="evenodd">
        <g id="D-1.0-Home" transform="translate(-1208.000000, -2785.000000)">
            <g id="FAQ-+-CTA" transform="translate(0.000000, 2274.000000)">
                <g id="FAQs-Icon-Ovens-&amp;-Ranges-Copy" transform="translate(1208.000000, 511.000000)">
                    <mask id="mask-2" fill="white">
                        <use xlink:href="#path-1"></use>
                    </mask>
                    <g id="Mask"></g>
                    <g id="FAQs-Icon-Ovens-&amp;-Ranges" mask="url(#mask-2)" fill="#DED1B1" fill-rule="nonzero">
                        <g transform="translate(14.643110, 25.048544)">
                            <path d="M0,13.5679612 L0,63.6650485 L306.459364,63.6650485 L306.459364,13.5679612 L0,13.5679612 Z M15.7983112,50.4105057 C9.13760608,50.4105057 3.73803772,45.0029411 3.73803772,38.3323721 C3.73803772,31.6618031 9.13760608,26.2542385 15.7983112,26.2542385 C22.4590163,26.2542385 27.858594,31.6618031 27.858594,38.3323721 C27.8625482,41.5382826 26.5936658,44.6142463 24.3314961,46.8825711 C22.0693263,49.1508959 18.9994835,50.4254601 15.7983112,50.4254601 L15.7983112,50.4105057 Z M44.9958202,50.4105057 C38.3351151,50.4105057 32.9355467,45.0029411 32.9355467,38.3323721 C32.9355467,31.6618031 38.3351151,26.2542385 44.9958202,26.2542385 C51.6565253,26.2542385 57.056103,31.6618031 57.056103,38.3323721 C57.0600572,41.5382826 55.7911748,44.6142463 53.5290051,46.8825711 C51.2668353,49.1508959 48.1969925,50.4254601 44.9958202,50.4254601 L44.9958202,50.4105057 Z M74.1933292,50.4105057 C67.5326241,50.4105057 62.1330557,45.0029411 62.1330557,38.3323721 C62.1330557,31.6618031 67.5326241,26.2542385 74.1933292,26.2542385 C80.8540343,26.2542385 86.253612,31.6618031 86.253612,38.3323721 C86.2575654,41.537419 84.9893659,44.6126269 82.7282729,46.8808081 C80.4671799,49.1489894 77.3986163,50.4241398 74.1983066,50.4254601 L74.1933292,50.4105057 Z M213.769965,57.9225764 L93.2219819,57.9225764 L93.2219819,18.2187654 L213.769965,18.2187654 L213.769965,57.9225764 Z M232.783686,50.4105057 C226.122981,50.4105057 220.723412,45.0029411 220.723412,38.3323721 C220.723412,31.6618031 226.122981,26.2542385 232.783686,26.2542385 C239.444391,26.2542385 244.843969,31.6618031 244.843969,38.3323721 C244.847922,41.537419 243.579723,44.6126269 241.31863,46.8808081 C239.057537,49.1489894 235.988973,50.4241398 232.788663,50.4254601 L232.783686,50.4105057 Z M261.712414,50.4105057 C255.051709,50.4105057 249.652141,45.0029411 249.652141,38.3323721 C249.652141,31.6618031 255.051709,26.2542385 261.712414,26.2542385 C268.37312,26.2542385 273.772697,31.6618031 273.772697,38.3323721 C273.776651,41.537419 272.508451,44.6126269 270.247358,46.8808081 C267.986265,49.1489894 264.917702,50.4241398 261.717392,50.4254601 L261.712414,50.4105057 Z M290.646121,50.4105057 C283.985415,50.4105057 278.585847,45.0029411 278.585847,38.3323721 C278.585847,31.6618031 283.985415,26.2542385 290.646121,26.2542385 C297.306826,26.2542385 302.706403,31.6618031 302.706403,38.3323721 C302.710357,41.537419 301.442157,44.6126269 299.181064,46.8808081 C296.919971,49.1489894 293.851408,50.4241398 290.651098,50.4254601 L290.646121,50.4105057 Z" id="Shape"></path>
                            <polygon id="Path" points="300.112469 1.40933943 191.086237 1.40933943 191.086237 0 188.595006 0 188.595006 1.40933943 185.241809 1.40933943 185.241809 0 182.750578 0 182.750578 1.40933943 178.829381 1.40933943 178.829381 0 176.33815 0 176.33815 1.40933943 173.029795 1.40933943 173.029795 0 170.538564 0 170.538564 1.40933943 167.140525 1.40933943 167.140525 0 164.649294 0 164.649294 1.40933943 161.475466 1.40933943 161.475466 0 158.984235 0 158.984235 1.40933943 155.297213 1.40933943 155.297213 0 152.805982 0 152.805982 1.40933943 149.228575 1.40933943 149.228575 0 146.737344 0 146.737344 1.40933943 143.518673 1.40933943 143.518673 0 141.027442 0 141.027442 1.40933943 137.360351 1.40933943 137.360351 0 134.86912 0 134.86912 1.40933943 131.829818 1.40933943 131.829818 0 129.338587 0 129.338587 1.40933943 125.581811 1.40933943 125.581811 0 123.09058 0 123.09058 1.40933943 119.602856 1.40933943 119.602856 0 117.111625 0 117.111625 1.40933943 7.39781412 1.40933943 3.13780919 13.5679612 19.5002141 13.5679612 21.2440758 4.84675269 101.287326 4.84675269 101.287326 13.5679612 106.648455 13.5679612 106.648455 10.8376729 200.861828 10.8376729 200.861828 13.5679612 206.222957 13.5679612 206.222957 4.84675269 286.266207 4.84675269 288.010069 13.5679612 304.367491 13.5679612"></polygon>
                            <path d="M295.100906,65.7524272 L295.100906,71.4053695 C283.702628,71.8162226 212.436018,74.281341 153.145066,74.281341 C94.7600028,74.281341 24.7924978,71.8904731 11.7865157,71.4301197 L11.7865157,65.7573772 L0,65.7573772 L0,294.320388 L306.459364,294.320388 L306.459364,65.7524272 L295.100906,65.7524272 Z M153.209772,272.223423 C148.918662,272.223423 145.440029,268.763924 145.440029,264.496415 C145.440029,260.228906 148.918662,256.769407 153.209772,256.769407 C157.500883,256.769407 160.979515,260.228906 160.979515,264.496415 C160.979515,266.545745 160.16092,268.51114 158.70381,269.960235 C157.246701,271.40933 155.270436,272.223423 153.209772,272.223423 Z M295.066064,244.270564 C295.060795,245.789061 294.448838,247.243207 293.364961,248.312767 C292.281084,249.382327 290.814177,249.979583 289.287287,249.97306 L17.5204964,249.97306 C15.9936064,249.979583 14.5266993,249.382327 13.4428221,248.312767 C12.3589448,247.243207 11.7469881,245.789061 11.741719,244.270564 L11.741719,85.8000773 C25.8277999,86.2356805 106.362354,88.6611987 153.100269,88.6611987 C200.495203,88.6611987 282.687236,86.1861802 295.056109,85.7802771 L295.066064,244.270564 Z" id="Shape"></path>
                        </g>
                    </g>
                </g>
            </g>
        </g>
    </g>
</svg>