<?xml version="1.0" encoding="UTF-8"?>
<svg width="52px" height="37px" viewBox="0 0 52 37" version="1.1" xmlns="http://www.w3.org/2000/svg" xmlns:xlink="http://www.w3.org/1999/xlink">
    <!-- Generator: Sketch 62 (91390) - https://sketch.com -->
    <title>icon-step2</title>
    <desc>Created with Sketch.</desc>
    <g id="Symbols" stroke="none" stroke-width="1" fill="none" fill-rule="evenodd">
        <g id="Card/How-It-Works" transform="translate(-266.000000, -86.000000)" fill="#092C74">
            <g id="How-GE-Repair-services-work" transform="translate(0.000000, 15.000000)">
                <g id="Step-2" transform="translate(266.000000, 69.000000)">
                    <g id="icon-step2" transform="translate(0.000000, 2.000000)">
                        <path d="M45.6546371,9 L20.3427389,9 C19.6021957,9 19,9.67270262 19,10.5 C19,11.3272754 19.602176,12 20.3427389,12 L45.6572611,12 C46.3978043,12 47,11.3272974 47,10.5 C46.9974351,9.66986663 46.3952591,9 45.6547027,9 L45.6546371,9 Z" id="Fill-1"></path>
                        <path d="M37.674354,14 L21.3230605,14 C20.5933703,14 20,14.6727026 20,15.5 C20,16.3272974 20.5933509,17 21.3230605,17 L37.6769395,17 C38.4066297,17 39,16.3272974 39,15.5 C38.9949454,14.6727246 38.4041218,14 37.6744186,14 L37.674354,14 Z" id="Fill-2"></path>
                        <path d="M47.2433942,0 L17.7577466,0 C15.1351053,0 12.9987419,2.15511455 12.9987419,4.80407386 L12.9987419,11.5240758 L3.84485439,11.5240758 C1.72380941,11.5240758 0,13.2651402 0,15.4074165 L0,26.9058816 C0,29.0481579 1.72380941,30.7892224 3.84485439,30.7892224 L6.15434835,30.7892224 L6.15434835,35.6575534 C6.15434835,36.2027643 6.48027185,36.6939624 6.97678372,36.8997036 C7.14229419,36.9691421 7.31288907,37 7.48858791,37 C7.83743036,37 8.17609095,36.8636973 8.4307024,36.6039498 L14.1928931,30.7840739 L25.4854906,30.7840739 C27.6065356,30.7840739 29.330345,29.0430095 29.330345,26.9007332 L29.330345,25.2676417 L33.3407034,25.2676417 L41.3336514,33.3405978 C41.5882759,33.5977711 41.9294787,33.736648 42.2757659,33.736648 C42.4463673,33.736648 42.6195109,33.7032159 42.7875701,33.6363517 C43.284095,33.4280362 43.6100055,32.9368315 43.6100055,32.3916338 L43.6100055,25.2706834 L47.2384466,25.2706834 C49.8610879,25.2706834 51.9974513,23.1155688 51.9974513,20.4666095 L52,4.80723405 C52,2.15834058 49.866244,0.000592534703 47.2435376,0.000592534703 L47.2433942,0 Z M26.6645841,26.9109511 C26.6645841,27.569323 26.1349584,28.1016825 25.4856536,28.1016825 L13.6402898,28.1016825 C13.2863564,28.1016825 12.9477023,28.2431271 12.6981753,28.4977327 L8.82020706,32.4145188 L8.82020706,29.4492776 C8.82020706,28.7060416 8.22183106,28.1016562 7.48594141,28.1016562 L3.84478921,28.1016562 C3.1929422,28.1016562 2.66585871,27.566729 2.66585871,26.9109248 L2.66585871,15.4124597 C2.66585871,14.756662 3.19548441,14.2217283 3.84478921,14.2217283 L12.9986768,14.2217283 L12.9986768,20.4762612 C12.9986768,23.1251547 15.1324327,25.2803351 17.7576814,25.2803351 L26.6671263,25.2803351 L26.6645841,26.9109511 Z M49.3338675,20.4738516 C49.3338675,21.636273 48.3968374,22.5852503 47.2433942,22.5852503 L42.2806873,22.5852503 C41.5448172,22.5852503 40.9464217,23.1896159 40.9464217,23.9328717 L40.9464217,29.1509956 L34.8378982,22.9813268 C34.5883646,22.7292954 34.2497106,22.5852766 33.8957837,22.5852766 L17.7573555,22.5852766 C16.6064544,22.5852766 15.6668821,21.638867 15.6668821,20.4738779 L15.6643334,4.80660201 C15.6643334,3.6441806 16.6013635,2.69520335 17.7548067,2.69520335 L47.2430617,2.69520335 C48.3939628,2.69520335 49.3335351,3.64161295 49.3335351,4.80660201 L49.3360838,20.4738779 L49.3338675,20.4738516 Z" id="Fill-3"></path>
                    </g>
                </g>
            </g>
        </g>
    </g>
</svg>